<?xml version="1.0" encoding="UTF-8"?>
<svg version="1.1" xmlns="http://www.w3.org/2000/svg" width="512" height="512">
<path d="M0 0 C1.01823853 0.00215515 2.03647705 0.0043103 3.08557129 0.00653076 C17.7097884 0.05623391 32.00304638 0.37042012 46.375 3.3125 C47.37160645 3.50585938 48.36821289 3.69921875 49.39501953 3.8984375 C97.79648057 13.46213524 141.99059771 35.87987765 177.375 70.3125 C178.37877686 71.27760498 178.37877686 71.27760498 179.40283203 72.26220703 C188.33991207 80.87657599 196.74206664 89.58564609 204.10107422 99.59423828 C205.39750666 101.34285682 206.72788718 103.06078803 208.06640625 104.77734375 C215.93067241 114.9920598 222.3161092 125.94975258 228.375 137.3125 C229.03846436 138.55314209 229.03846436 138.55314209 229.71533203 139.81884766 C241.23204842 161.72199262 248.9030584 186.01309889 253.375 210.3125 C253.53581055 211.11316895 253.69662109 211.91383789 253.86230469 212.73876953 C259.3544441 240.81662453 259.10896692 274.30227935 253.375 302.3125 C253.18164062 303.30910645 252.98828125 304.30571289 252.7890625 305.33251953 C244.67028127 346.42132055 227.30084885 383.51549494 201.375 416.3125 C200.56289063 417.35019531 199.75078125 418.38789063 198.9140625 419.45703125 C186.24907313 435.01858759 171.69874403 449.61464417 155.375 461.3125 C154.02974408 462.30180622 152.68470229 463.29140366 151.33984375 464.28125 C116.16613227 489.89565441 75.53560925 505.77286752 32.375 511.3125 C31.70779434 511.39982895 31.04058868 511.4871579 30.35316467 511.57713318 C24.6367952 512.27337492 18.99757373 512.48706148 13.2421875 512.515625 C12.2958847 512.52268463 11.34958191 512.52974426 10.37460327 512.53701782 C-28.77050628 512.76278019 -28.77050628 512.76278019 -45.625 509.3125 C-47.11990967 509.02246094 -47.11990967 509.02246094 -48.64501953 508.7265625 C-89.73382055 500.60778127 -126.82799494 483.23834885 -159.625 457.3125 C-160.66269531 456.50039063 -161.70039063 455.68828125 -162.76953125 454.8515625 C-177.7598447 442.65148711 -192.07584979 428.65122724 -203.41552734 412.96630859 C-204.67886046 411.23885229 -205.98455472 409.55071483 -207.30078125 407.86328125 C-230.04400814 378.35354111 -244.43541698 342.37805424 -251.875 306.0625 C-252.10159302 304.96723999 -252.10159302 304.96723999 -252.33276367 303.84985352 C-255.36488317 288.1556851 -255.9982107 272.63266136 -255.9375 256.6875 C-255.93534485 255.66926147 -255.9331897 254.65102295 -255.93096924 253.60192871 C-255.88126609 238.9777116 -255.56707988 224.68445362 -252.625 210.3125 C-252.33496094 208.81759033 -252.33496094 208.81759033 -252.0390625 207.29248047 C-242.60837882 159.56419789 -220.63885226 115.26845549 -186.625 80.3125 C-185.93245117 79.59416992 -185.23990234 78.87583984 -184.52636719 78.13574219 C-174.78805129 68.06884541 -165.02732714 58.47657992 -153.625 50.3125 C-153.08182129 49.9191748 -152.53864258 49.52584961 -151.97900391 49.12060547 C-130.95957235 33.97140947 -108.19691838 21.59948134 -83.625 13.3125 C-82.40248535 12.89943604 -82.40248535 12.89943604 -81.15527344 12.47802734 C-71.38442323 9.23994494 -61.50281263 6.70764527 -51.4375 4.5625 C-50.51283936 4.36374268 -49.58817871 4.16498535 -48.63549805 3.96020508 C-32.42888823 0.66750973 -16.4946298 -0.06280278 0 0 Z " fill="#020101" transform="translate(255.625,-0.3125)"/>
<path d="M0 0 C8.67384339 6.69835266 15.26808391 14.45994234 20.58984375 24 C21.05003906 24.78761719 21.51023437 25.57523438 21.984375 26.38671875 C30.81876988 42.53417768 31.96813366 61.12435265 27.56640625 78.79296875 C21.41041929 99.00922992 9.15709709 115.44000136 -9.46484375 125.6796875 C-27.56386928 134.57431863 -47.45756599 137.39228745 -66.91796875 131.32421875 C-77.25021219 127.40628751 -86.17726294 122.4426505 -94.41015625 115 C-95.11785156 114.37351562 -95.82554687 113.74703125 -96.5546875 113.1015625 C-107.34124953 102.99560572 -113.82760228 89.18497722 -117.41015625 75 C-117.59449219 74.28328125 -117.77882812 73.5665625 -117.96875 72.828125 C-121.05643165 53.04510274 -116.87081064 33.66960283 -105.4609375 17.18359375 C-103.5282996 14.69660392 -101.52199055 12.33606381 -99.41015625 10 C-98.47042969 8.93845703 -98.47042969 8.93845703 -97.51171875 7.85546875 C-92.46590524 2.46983515 -86.78734844 -1.33535998 -80.41015625 -5 C-79.61867187 -5.4640625 -78.8271875 -5.928125 -78.01171875 -6.40625 C-52.92897042 -20.07259793 -23.02381003 -15.51077729 0 0 Z " fill="#FDFDFD" transform="translate(300.41015625,196)"/>
<path d="M0 0 C5.96118297 4.93997261 11.41486302 10.28529862 16.87109375 15.7734375 C17.793423 16.6971817 18.71575226 17.6209259 19.66603088 18.57266235 C22.09633814 21.00675431 24.52362496 23.44383597 26.95025635 25.8815918 C29.43569364 28.3773311 31.92402932 30.87017708 34.41210938 33.36328125 C39.27755096 38.2393886 44.13980198 43.11866631 49 48 C48.05173305 49.26920613 47.10278894 50.53790633 46.15356445 51.80639648 C45.62519485 52.51295883 45.09682526 53.21952118 44.55244446 53.94749451 C42.47796899 56.69018348 40.32658425 59.37002081 38.1875 62.0625 C34.50072481 66.82358137 31.07153905 71.7086905 27.875 76.8125 C27.48465576 77.41006104 27.09431152 78.00762207 26.69213867 78.62329102 C23.81297235 83.36740904 23.5493329 86.62622266 24 92 C24.87870914 94.212981 24.87870914 94.212981 27 95 C30.43524752 95.47658177 30.43524752 95.47658177 34 94 C36.47134724 91.28464632 38.18208551 88.17666501 40 85 C43.80930671 78.75801722 47.81472824 72.74890123 52.25 66.9375 C52.67442383 66.37708008 53.09884766 65.81666016 53.53613281 65.23925781 C55.56153332 62.62505939 57.21907735 60.85394843 60 59 C75.84 74.84 91.68 90.68 108 107 C106.40718446 109.65469257 104.80463279 112.30449493 103.1328125 114.91015625 C94.75534064 128.06311304 89.50920758 141.40485496 88 157 C87 158 87 158 84.29820251 158.12025452 C83.09241043 158.11803391 81.88661835 158.11581329 80.64428711 158.11352539 C79.98089828 158.11367142 79.31750946 158.11381744 78.63401794 158.1139679 C76.43176044 158.11326881 74.22958655 158.10547665 72.02734375 158.09765625 C70.50419664 158.09579206 68.98104893 158.09436816 67.457901 158.09336853 C63.44162349 158.08954346 59.42538192 158.07971328 55.40911865 158.06866455 C51.31376634 158.05845019 47.21840824 158.05387086 43.12304688 158.04882812 C35.08201472 158.038091 27.04101183 158.02101472 19 158 C18.98504925 156.0885657 18.97441 154.17709736 18.96557617 152.265625 C18.95918625 151.20118164 18.95279633 150.13673828 18.94621277 149.04003906 C19.01427547 145.19315473 19.54630976 141.7720135 20.3125 138 C20.44567627 137.3299292 20.57885254 136.6598584 20.71606445 135.96948242 C21.7700682 130.78096836 23.04144518 125.65486286 24.44921875 120.55078125 C25.29368662 116.63987687 25.26675801 113.80027403 24 110 C22.56344146 109.91868537 21.1255517 109.86066441 19.6875 109.8125 C18.88699219 109.77769531 18.08648437 109.74289063 17.26171875 109.70703125 C14.98117763 109.82961462 14.98117763 109.82961462 13.33203125 111.1328125 C8.58079357 117.7929052 7.67169144 128.08408039 6.3125 136.0625 C6.19326172 136.75674072 6.07402344 137.45098145 5.95117188 138.16625977 C4.89402986 144.79554847 4.52003906 151.23949228 4 158 C-18.77 158 -41.54 158 -65 158 C-65 144.4829932 -65 144.4829932 -64.265625 139.5546875 C-64.10610352 138.46776611 -63.94658203 137.38084473 -63.78222656 136.26098633 C-63.6065918 135.14361084 -63.43095703 134.02623535 -63.25 132.875 C-62.97494629 131.0974231 -62.97494629 131.0974231 -62.69433594 129.28393555 C-55.13509844 81.58488762 -34.54076235 34.54076235 0 0 Z " fill="#FC9058" transform="translate(80,91)"/>
<path d="M0 0 C5.58724993 4.46979994 9.64673118 9.38008329 14 15 C14.43119141 15.55623047 14.86238281 16.11246094 15.30664062 16.68554688 C22.97469748 26.66637051 29.67099856 37.12780456 36 48 C36.54285645 48.91869873 36.54285645 48.91869873 37.09667969 49.85595703 C51.4179948 74.29812498 59.50694563 101.93710909 63.9375 129.75 C64.0455899 130.41782501 64.15367981 131.08565002 64.26504517 131.77371216 C65.69624913 140.77407988 66 148.70775764 66 158 C43.23 158 20.46 158 -3 158 C-3.33 153.71 -3.66 149.42 -4 145 C-6.88970936 123.10677827 -13.29159501 102.33315483 -24 83 C-24.64407544 81.79081497 -25.28730784 80.58118051 -25.9296875 79.37109375 C-29.86765595 72.09031581 -34.36045781 65.59653987 -39.5078125 59.1328125 C-42.4134699 55.4802463 -45.19959458 51.73387389 -48 48 C-32.16 32.16 -16.32 16.32 0 0 Z " fill="#08A0E4" transform="translate(431,91)"/>
<path d="M0 0 C22.77 0 45.54 0 69 0 C67.82159327 24.74654126 67.82159327 24.74654126 66.4375 32.625 C66.26895508 33.60243164 66.10041016 34.57986328 65.92675781 35.58691406 C61.24940771 60.90856838 52.12472821 85.33543598 40 108 C39.38640625 109.15628906 38.7728125 110.31257813 38.140625 111.50390625 C28.79591299 128.47498446 16.83210605 143.55341216 4 158 C-1.96118297 153.06002739 -7.41486302 147.71470138 -12.87109375 142.2265625 C-13.793423 141.3028183 -14.71575226 140.3790741 -15.66603088 139.42733765 C-18.09633814 136.99324569 -20.52362496 134.55616403 -22.95025635 132.1184082 C-25.43569364 129.6226689 -27.92402932 127.12982292 -30.41210938 124.63671875 C-35.27755096 119.7606114 -40.13980198 114.88133369 -45 110 C-44.05184028 108.72998162 -43.10287021 107.46056822 -42.15356445 106.19140625 C-41.36101006 105.13095093 -41.36101006 105.13095093 -40.55244446 104.04907227 C-39.24473493 102.32302577 -37.89810202 100.62656913 -36.54296875 98.9375 C-30.00456814 90.78347469 -24.78996833 82.28056364 -20 73 C-19.65195312 72.32984863 -19.30390625 71.65969727 -18.9453125 70.96923828 C-7.36626221 48.37158985 -1.94280032 25.25640421 0 0 Z " fill="#0555B1" transform="translate(428,263)"/>
<path d="M0 0 C5.96118297 4.93997261 11.41486302 10.28529862 16.87109375 15.7734375 C17.793423 16.6971817 18.71575226 17.6209259 19.66603088 18.57266235 C22.09633814 21.00675431 24.52362496 23.44383597 26.95025635 25.8815918 C29.43569364 28.3773311 31.92402932 30.87017708 34.41210938 33.36328125 C39.27755096 38.2393886 44.13980198 43.11866631 49 48 C38.02095678 61.98325902 20.17515917 72.99575208 5 82 C4.2059375 82.47308594 3.411875 82.94617188 2.59375 83.43359375 C-30.82827299 102.46557906 -70.47934015 114 -109 114 C-109 91.23 -109 68.46 -109 45 C-103.39 44.34 -97.78 43.68 -92 43 C-57.48337636 38.65346221 -25.9462271 22.9977922 0 0 Z " fill="#612775" transform="translate(372,383)"/>
<path d="M0 0 C58.55891025 0 115.38661739 25.65589806 158 65 C153.06002739 70.96118297 147.71470138 76.41486302 142.2265625 81.87109375 C141.3028183 82.793423 140.3790741 83.71575226 139.42733765 84.66603088 C136.99324569 87.09633814 134.55616403 89.52362496 132.1184082 91.95025635 C129.6226689 94.43569364 127.12982292 96.92402932 124.63671875 99.41210938 C119.7606114 104.27755096 114.88133369 109.13980198 110 114 C108.72998162 113.05184028 107.46056822 112.10287021 106.19140625 111.15356445 C105.48443604 110.62519485 104.77746582 110.09682526 104.04907227 109.55244446 C102.32302577 108.24473493 100.62656913 106.89810202 98.9375 105.54296875 C91.33259616 99.44488761 83.44647765 94.52304178 74.83251953 89.97119141 C73.24173243 89.12811239 71.66446024 88.25962695 70.08984375 87.38671875 C47.93192819 75.55853649 24.88555317 71.37005268 0 69 C0 46.23 0 23.46 0 0 Z " fill="#87C046" transform="translate(263,15)"/>
<path d="M0 0 C22.77 0 45.54 0 69 0 C69.99 7.92 70.98 15.84 72 24 C75.86871398 42.23822306 81.95104593 59.67934148 91 76 C91.35852051 76.64839844 91.71704102 77.29679687 92.08642578 77.96484375 C96.40831413 85.6804553 101.05288441 92.72777754 106.859375 99.4375 C109.4097745 102.49053298 111.68775674 105.76285943 114 109 C98.16 124.84 82.32 140.68 66 157 C60.41275007 152.53020006 56.35326882 147.61991671 52 142 C51.56880859 141.44376953 51.13761719 140.88753906 50.69335938 140.31445312 C39.38551186 125.5960396 29.76644684 109.85984432 22 93 C21.67435059 92.29891113 21.34870117 91.59782227 21.01318359 90.87548828 C7.49151046 61.3862421 2.31816029 32.45424408 0 0 Z " fill="#FD5077" transform="translate(15,264)"/>
<path d="M0 0 C1.27207806 0.95238729 2.5439243 1.90508422 3.81567383 2.85791016 C4.87810051 3.65365952 4.87810051 3.65365952 5.96199036 4.46548462 C7.63289949 5.72359238 9.29267575 6.99647323 10.94921875 8.2734375 C26.55316196 20.24907437 43.4672654 29.43684704 62 36 C62.77472656 36.28488281 63.54945313 36.56976563 64.34765625 36.86328125 C78.76827739 41.96676786 93.84183909 43.73681992 109 45 C109 67.44 109 89.88 109 113 C87.88770874 113 87.88770874 113 78.4375 111.4375 C77.34743652 111.26186523 76.25737305 111.08623047 75.13427734 110.90527344 C55.99824028 107.63109887 37.75140638 101.787567 20 94 C19.2687793 93.68450195 18.53755859 93.36900391 17.78417969 93.04394531 C-6.72965354 82.38335538 -28.09697742 66.67662621 -48 49 C-43.06002739 43.03881703 -37.71470138 37.58513698 -32.2265625 32.12890625 C-31.3028183 31.206577 -30.3790741 30.28424774 -29.42733765 29.33396912 C-26.99324569 26.90366186 -24.55616403 24.47637504 -22.1184082 22.04974365 C-19.6226689 19.56430636 -17.12982292 17.07597068 -14.63671875 14.58789062 C-9.7606114 9.72244904 -4.88133369 4.86019802 0 0 Z " fill="#CA2D80" transform="translate(139,383)"/>
<path d="M0 0 C0 22.44 0 44.88 0 68 C-5.28 68.66 -10.56 69.32 -16 70 C-20.03514056 70.59465229 -24.00043713 71.23180639 -28 72 C-29.23621094 72.23074219 -30.47242188 72.46148437 -31.74609375 72.69921875 C-59.92821037 78.3927129 -87.17530469 93.27714042 -108 113 C-113.96118297 108.06002739 -119.41486302 102.71470138 -124.87109375 97.2265625 C-125.793423 96.3028183 -126.71575226 95.3790741 -127.66603088 94.42733765 C-130.09633814 91.99324569 -132.52362496 89.55616403 -134.95025635 87.1184082 C-137.43569364 84.6226689 -139.92402932 82.12982292 -142.41210938 79.63671875 C-147.27755096 74.7606114 -152.13980198 69.88133369 -157 65 C-143.06687012 51.05099108 -127.9228801 39.7808906 -110.79882812 30.02490234 C-109.06199601 29.03532292 -107.33545982 28.02773978 -105.609375 27.01953125 C-82.48887124 14.03368777 -56.67119448 5.78989672 -30.5625 1.5625 C-29.07375366 1.3162085 -29.07375366 1.3162085 -27.55493164 1.06494141 C-18.16325462 -0.3053335 -9.77546034 0 0 0 Z " fill="#FDD13A" transform="translate(248,16)"/>
<path d="M0 0 C5.96118297 4.93997261 11.41486302 10.28529862 16.87109375 15.7734375 C18.25458763 17.1590538 18.25458763 17.1590538 19.66603088 18.57266235 C22.09633814 21.00675431 24.52362496 23.44383597 26.95025635 25.8815918 C29.43569364 28.3773311 31.92402932 30.87017708 34.41210938 33.36328125 C39.27755096 38.2393886 44.13980198 43.11866631 49 48 C47.41150318 50.66197976 45.80701866 53.30077635 44.1328125 55.91015625 C35.75534064 69.06311304 30.50920758 82.40485496 29 98 C28 99 28 99 25.29820251 99.12025452 C24.09241043 99.11803391 22.88661835 99.11581329 21.64428711 99.11352539 C20.98089828 99.11367142 20.31750946 99.11381744 19.63401794 99.1139679 C17.43176044 99.11326881 15.22958655 99.10547665 13.02734375 99.09765625 C11.50419664 99.09579206 9.98104893 99.09436816 8.457901 99.09336853 C4.44162349 99.08954346 0.42538192 99.07971328 -3.59088135 99.06866455 C-7.68623366 99.05845019 -11.78159176 99.05387086 -15.87695312 99.04882812 C-23.91798528 99.038091 -31.95898817 99.02101472 -40 99 C-40.01495075 97.0885657 -40.02559 95.17709736 -40.03442383 93.265625 C-40.04081375 92.20118164 -40.04720367 91.13673828 -40.05378723 90.04003906 C-39.98572453 86.19315473 -39.45369024 82.7720135 -38.6875 79 C-38.4877356 77.9948938 -38.4877356 77.9948938 -38.28393555 76.96948242 C-37.2299318 71.78096836 -35.95855482 66.65486286 -34.55078125 61.55078125 C-33.70631338 57.63987687 -33.73324199 54.80027403 -35 51 C-35.99 50.67 -36.98 50.34 -38 50 C-37.57316761 48.41375765 -37.13303842 46.8310902 -36.6875 45.25 C-36.32205078 43.92742187 -36.32205078 43.92742187 -35.94921875 42.578125 C-34.95772722 39.88518504 -33.97699693 38.07825775 -32 36 C-30.906875 35.938125 -29.81375 35.87625 -28.6875 35.8125 C-24.51077076 34.89220373 -24.23485436 34.51023516 -22 31.125 C-20.98234569 29.42712413 -19.98319621 27.71805936 -19 26 C-13.4846563 16.96248136 -7.52960676 7.52960676 0 0 Z " fill="#FCDE7A" transform="translate(139,150)"/>
<path d="M0 0 C1.07596436 0.00401825 2.15192871 0.0080365 3.26049805 0.01217651 C4.0781665 0.01734283 4.89583496 0.02250916 5.73828125 0.02783203 C5.76140714 8.87665593 5.77919759 17.7254695 5.79009342 26.57431698 C5.79532171 30.68277488 5.80241838 34.79121217 5.8137207 38.8996582 C5.8245515 42.86130032 5.83055849 46.82292255 5.83315849 50.78457832 C5.83501239 52.29931514 5.83863235 53.81405082 5.84401131 55.32877922 C5.85122432 57.44325016 5.85227208 59.55763797 5.85180664 61.67211914 C5.85402725 62.87791122 5.85624786 64.08370331 5.85853577 65.32603455 C5.73828125 68.02783203 5.73828125 68.02783203 4.73828125 69.02783203 C3.01478748 69.3326882 1.28380277 69.5953739 -0.44921875 69.84033203 C-17.0153639 72.56219276 -31.217727 78.3796755 -44.26171875 89.02783203 C-50.22290172 84.08785942 -55.67658177 78.74253341 -61.1328125 73.25439453 C-62.05514175 72.33065033 -62.97747101 71.40690613 -63.92774963 70.45516968 C-66.35805689 68.02107772 -68.78534371 65.58399606 -71.2119751 63.14624023 C-73.69741239 60.65050093 -76.18574807 58.15765495 -78.67382812 55.66455078 C-83.53926971 50.78844343 -88.40152073 45.90916572 -93.26171875 41.02783203 C-69.81555849 17.44051781 -33.73043035 -0.16360062 0 0 Z " fill="#FCEDBB" transform="translate(243.26171875,98.97216796875)"/>
<path d="M0 0 C20.95049903 20.8251246 32.83615784 47.43706862 39 76 C39.22945313 77.02738281 39.45890625 78.05476563 39.6953125 79.11328125 C40.68061806 83.90797238 41.08734382 88.42411927 41.046875 93.32421875 C41.04010742 94.39115967 41.03333984 95.45810059 41.02636719 96.55737305 C41.01331543 97.76647339 41.01331543 97.76647339 41 99 C32.1511761 99.02312589 23.30236253 99.04091634 14.45351505 99.05181217 C10.34505715 99.05704046 6.23661986 99.06413713 2.12817383 99.07543945 C-1.83346828 99.08627025 -5.79509052 99.09227724 -9.75674629 99.09487724 C-11.27148311 99.09673114 -12.78621879 99.1003511 -14.30094719 99.10573006 C-16.41541813 99.11294307 -18.52980594 99.11399083 -20.64428711 99.11352539 C-22.45297523 99.11685631 -22.45297523 99.11685631 -24.29820251 99.12025452 C-27 99 -27 99 -28 98 C-28.25188657 95.98187268 -28.47542452 93.96019837 -28.6875 91.9375 C-30.86033863 76.31526607 -37.89704405 61.10109613 -48 49 C-43.06002739 43.03881703 -37.71470138 37.58513698 -32.2265625 32.12890625 C-31.3028183 31.206577 -30.3790741 30.28424774 -29.42733765 29.33396912 C-26.99324569 26.90366186 -24.55616403 24.47637504 -22.1184082 22.04974365 C-19.6226689 19.56430636 -17.12982292 17.07597068 -14.63671875 14.58789062 C-9.7606114 9.72244904 -4.88133369 4.86019802 0 0 Z " fill="#7CD4FC" transform="translate(372,150)"/>
<path d="M0 0 C12.89891975 0 12.89891975 0 19.1875 1.1875 C19.90599121 1.31987061 20.62448242 1.45224121 21.36474609 1.58862305 C50.47190615 7.25665848 75.52488093 21.08085215 98 40 C93.06002739 45.96118297 87.71470138 51.41486302 82.2265625 56.87109375 C81.3028183 57.793423 80.3790741 58.71575226 79.42733765 59.66603088 C76.99324569 62.09633814 74.55616403 64.52362496 72.1184082 66.95025635 C69.6226689 69.43569364 67.12982292 71.92402932 64.63671875 74.41210938 C59.7606114 79.27755096 54.88133369 84.13980198 50 89 C47.37256703 87.43555953 44.78145839 85.8554358 42.23046875 84.16796875 C29.29546674 75.74942444 15.38644986 70.70960554 0 69 C0 46.23 0 23.46 0 0 Z " fill="#C2D782" transform="translate(264,99)"/>
<path d="M0 0 C5.96118297 4.93997261 11.41486302 10.28529862 16.87109375 15.7734375 C17.793423 16.6971817 18.71575226 17.6209259 19.66603088 18.57266235 C22.09633814 21.00675431 24.52362496 23.44383597 26.95025635 25.8815918 C29.43569364 28.3773311 31.92402932 30.87017708 34.41210938 33.36328125 C39.27755096 38.2393886 44.13980198 43.11866631 49 48 C26.37719271 70.73765577 -6.05494833 85.74030085 -38 89 C-41.63 89 -45.26 89 -49 89 C-49 66.23 -49 43.46 -49 20 C-41.08 18.515 -41.08 18.515 -33 17 C-20.68614126 13.35485276 -10.27995443 7.59822718 0 0 Z " fill="#C92D80" transform="translate(313,324)"/>
<path d="M0 0 C22.77 0 45.54 0 69 0 C69.99 6.435 69.99 6.435 71 13 C71.79481693 15.913485 72.58912851 18.62614898 73.625 21.4375 C73.88007324 22.14487305 74.13514648 22.85224609 74.39794922 23.58105469 C77.87447174 32.81731261 82.67168758 41.40602509 89 49 C84.06002739 54.96118297 78.71470138 60.41486302 73.2265625 65.87109375 C72.3028183 66.793423 71.3790741 67.71575226 70.42733765 68.66603088 C67.99324569 71.09633814 65.55616403 73.52362496 63.1184082 75.95025635 C60.6226689 78.43569364 58.12982292 80.92402932 55.63671875 83.41210938 C50.7606114 88.27755096 45.88133369 93.13980198 41 98 C26.41177306 83.47186874 16.41096035 66.13546696 9 47 C8.30970703 45.22302734 8.30970703 45.22302734 7.60546875 43.41015625 C4.98839036 36.12819493 3.18823154 28.83154799 1.6875 21.25 C1.51581299 20.39897705 1.34412598 19.5479541 1.16723633 18.67114258 C-0.03320487 12.18049415 0 6.82250786 0 0 Z " fill="#FD9158" transform="translate(99,264)"/>
<path d="M0 0 C2.66197976 1.58849682 5.30077635 3.19298134 7.91015625 4.8671875 C21.20061647 13.33223899 34.26666125 18.25185125 50 20 C50 42.77 50 65.54 50 89 C42.57303538 89 36.25737067 88.85217936 29.125 87.4375 C28.22716797 87.25968994 27.32933594 87.08187988 26.40429688 86.89868164 C-1.67630346 81.02572681 -26.47858125 67.86065581 -48 49 C-43.06002739 43.03881703 -37.71470138 37.58513698 -32.2265625 32.12890625 C-31.3028183 31.206577 -30.3790741 30.28424774 -29.42733765 29.33396912 C-26.99324569 26.90366186 -24.55616403 24.47637504 -22.1184082 22.04974365 C-19.6226689 19.56430636 -17.12982292 17.07597068 -14.63671875 14.58789062 C-9.7606114 9.72244904 -4.88133369 4.86019802 0 0 Z " fill="#FD5077" transform="translate(198,324)"/>
<path d="M0 0 C22.77 0 45.54 0 69 0 C69 7.44071268 68.84773297 13.78659374 67.4375 20.9375 C67.26186523 21.83500977 67.08623047 22.73251953 66.90527344 23.65722656 C61.08300703 51.63346127 47.55684806 76.45011192 29 98 C23.03881703 93.06002739 17.58513698 87.71470138 12.12890625 82.2265625 C11.206577 81.3028183 10.28424774 80.3790741 9.33396912 79.42733765 C6.90366186 76.99324569 4.47637504 74.55616403 2.04974365 72.1184082 C-0.43569364 69.6226689 -2.92402932 67.12982292 -5.41210938 64.63671875 C-10.27755096 59.7606114 -15.13980198 54.88133369 -20 50 C-18.43555953 47.37256703 -16.8554358 44.78145839 -15.16796875 42.23046875 C-6.3472354 28.67750765 -3.04072845 16.21721839 0 0 Z " fill="#08A0E3" transform="translate(344,264)"/>
<path d="M0 0 C5.57061586 4.36642197 9.68181077 9.42536979 14 15 C14.43119141 15.55623047 14.86238281 16.11246094 15.30664062 16.68554688 C22.97469748 26.66637051 29.67099856 37.12780456 36 48 C36.54285645 48.91869873 36.54285645 48.91869873 37.09667969 49.85595703 C51.4179948 74.29812498 59.50694563 101.93710909 63.9375 129.75 C64.0455899 130.41782501 64.15367981 131.08565002 64.26504517 131.77371216 C65.69624913 140.77407988 66 148.70775764 66 158 C43.23 158 20.46 158 -3 158 C-3 157.67 -3 157.34 -3 157 C12.18 157 27.36 157 43 157 C40.79523206 127.2180585 40.79523206 127.2180585 35 98 C34.74202637 97.00468262 34.48405273 96.00936523 34.21826172 94.98388672 C30.48870401 80.89816637 25.83247778 67.34934671 20 54 C19.66274902 53.21850586 19.32549805 52.43701172 18.97802734 51.63183594 C12.58966662 36.98742099 4.72630761 22.71308411 -5 10 C-8.16704917 11.40021171 -10.29310316 13.04874637 -12.72705078 15.5 C-13.44104034 16.21414062 -14.15502991 16.92828125 -14.89065552 17.6640625 C-15.65119232 18.43492188 -16.41172913 19.20578125 -17.1953125 20 C-18.37829422 21.18722656 -18.37829422 21.18722656 -19.58517456 22.3984375 C-22.10318349 24.92763509 -24.61415319 27.46369406 -27.125 30 C-28.82375841 31.70879109 -30.52297189 33.41712992 -32.22265625 35.125 C-35.95922959 38.88124512 -39.69137949 42.64182217 -43.41970825 46.40625 C-44.61030349 47.60698472 -45.80432427 48.80432427 -47 50 C-47 47 -47 47 -45.21569824 44.85493469 C-43.96327332 43.61250252 -43.96327332 43.61250252 -42.68554688 42.3449707 C-42.22712906 41.88611481 -41.76871124 41.42725891 -41.29640198 40.95449829 C-39.77751996 39.43770838 -38.24828368 37.93182317 -36.71875 36.42578125 C-35.66434654 35.37697224 -34.61060295 34.32749946 -33.55749512 33.27738953 C-30.78242545 30.51378048 -27.998465 27.75929781 -25.21258545 25.0065918 C-22.37199785 22.19667878 -19.53987191 19.37826607 -16.70703125 16.56054688 C-11.14628799 11.03198925 -5.57612778 5.51304014 0 0 Z " fill="#067AC8" transform="translate(431,91)"/>
<path d="M0 0 C22.77 0 45.54 0 69 0 C67.82159327 24.74654126 67.82159327 24.74654126 66.4375 32.625 C66.26895508 33.60243164 66.10041016 34.57986328 65.92675781 35.58691406 C61.24940771 60.90856838 52.12472821 85.33543598 40 108 C39.38640625 109.15628906 38.7728125 110.31257813 38.140625 111.50390625 C28.79306129 128.48016349 16.82345261 143.53951089 4 158 C1.69 156.02 -0.62 154.04 -3 152 C-1.29973573 146.90938842 1.65615124 142.71071913 4.5625 138.25 C24.44965607 107.08373897 37.03887751 72.38029997 42.38671875 35.8515625 C43 32 43 32 44 29 C44.21798936 26.86434915 44.38978389 24.72385075 44.53515625 22.58203125 C44.65322632 20.88784058 44.65322632 20.88784058 44.77368164 19.15942383 C44.8689917 17.72493896 44.96430176 16.2904541 45.0625 14.8125 C45.371875 10.254375 45.68125 5.69625 46 1 C30.82 1 15.64 1 0 1 C0 0.67 0 0.34 0 0 Z " fill="#2B246E" transform="translate(428,263)"/>
<path d="M0 0 C17.4149153 8.57581142 32.58627473 21.15567748 47 34 C44.525 36.97 44.525 36.97 42 40 C38.62640665 36.63997186 35.28929761 33.2482128 31.97265625 29.83203125 C18.10910881 15.54192365 18.10910881 15.54192365 2.25390625 3.57421875 C1.51011719 3.05472656 0.76632812 2.53523438 0 2 C0 1.34 0 0.68 0 0 Z " fill="#49AD8E" transform="translate(374,46)"/>
<path d="M0 0 C1.98 1.65 3.96 3.3 6 5 C-0.49116375 13.53632493 -9.57605609 19.50515434 -18.1875 25.75 C-18.93531738 26.29269531 -19.68313477 26.83539063 -20.45361328 27.39453125 C-24.06314645 29.9860726 -27.70656067 32.52116566 -31.42578125 34.953125 C-32.06555908 35.37239258 -32.70533691 35.79166016 -33.36450195 36.22363281 C-34.17407349 36.60793457 -34.17407349 36.60793457 -35 37 C-35.66 36.67 -36.32 36.34 -37 36 C-36.12601562 35.27039063 -35.25203125 34.54078125 -34.3515625 33.7890625 C-26.69903052 27.32041169 -19.39603301 20.58932139 -12.3125 13.5 C-11.54695801 12.73510254 -10.78141602 11.97020508 -9.99267578 11.18212891 C-6.44502871 7.59970873 -3.0366257 4.03815133 0 0 Z " fill="#2D246C" transform="translate(415,426)"/>
</svg>
